<svg width="7" height="14" viewBox="0 0 7 14" fill="none" xmlns="http://www.w3.org/2000/svg">
<path fill-rule="evenodd" clip-rule="evenodd" d="M0.145185 13.3541C0.0511431 13.2603 -0.00170898 13.1329 -0.00170898 13.0001C-0.00170898 12.8673 0.0511431 12.7399 0.145185 12.6461L5.79218 7.00008L0.145185 1.35408C0.0187128 1.22761 -0.0306802 1.04327 0.0156118 0.87051C0.0619038 0.697746 0.196848 0.562802 0.369612 0.51651C0.542376 0.470218 0.726713 0.51961 0.853185 0.646083L6.85318 6.64608C6.94723 6.73989 7.00008 6.86726 7.00008 7.00008C7.00008 7.13291 6.94723 7.26028 6.85318 7.35408L0.853185 13.3541C0.759381 13.4481 0.632012 13.501 0.499185 13.501C0.366358 13.501 0.238989 13.4481 0.145185 13.3541Z" fill="#052C65"/>
</svg>
